<svg width="96" height="99" viewBox="0 0 96 99" fill="none" xmlns="http://www.w3.org/2000/svg"><path fill-rule="evenodd" clip-rule="evenodd" d="M26.1001 33.4C26.1001 21.0288 36.1289 11 48.5001 11C60.8713 11 70.9001 21.0288 70.9001 33.4V43.8C70.9001 50.4274 65.5275 55.8 58.9001 55.8H38.1001C31.4727 55.8 26.1001 50.4274 26.1001 43.8V33.4ZM48.5001 22C42.2041 22 37.1001 27.104 37.1001 33.4V43.8C37.1001 44.3523 37.5478 44.8 38.1001 44.8H58.9001C59.4524 44.8 59.9001 44.3523 59.9001 43.8V33.4C59.9001 27.104 54.7961 22 48.5001 22Z" fill="#40525A"/><path d="M16 43.8C16 40.2102 18.9101 37.3 22.5 37.3H74.5C78.0898 37.3 81 40.2102 81 43.8V82.8C81 86.3899 78.0898 89.3 74.5 89.3H22.5C18.9102 89.3 16 86.3899 16 82.8V43.8Z" fill="#52656D"/><path d="M25.7502 42.5C23.2373 42.5 21.2002 44.5371 21.2002 47.05C21.2002 49.5629 23.2373 51.6 25.7502 51.6C28.2631 51.6 30.3002 49.5629 30.3002 47.05C30.3002 44.5371 28.2631 42.5 25.7502 42.5Z" fill="#40525A"/><path d="M71.2502 42.5C68.7373 42.5 66.7002 44.5371 66.7002 47.05C66.7002 49.5629 68.7373 51.6 71.2502 51.6C73.7631 51.6 75.8002 49.5629 75.8002 47.05C75.8002 44.5371 73.7631 42.5 71.2502 42.5Z" fill="#40525A"/><path d="M71.2502 75C68.7373 75 66.7002 77.0371 66.7002 79.55C66.7002 82.0629 68.7373 84.1 71.2502 84.1C73.7631 84.1 75.8002 82.0629 75.8002 79.55C75.8002 77.0371 73.7631 75 71.2502 75Z" fill="#40525A"/><path d="M25.7502 75C23.2373 75 21.2002 77.0371 21.2002 79.55C21.2002 82.0629 23.2373 84.1 25.7502 84.1C28.2631 84.1 30.3002 82.0629 30.3002 79.55C30.3002 77.0371 28.2631 75 25.7502 75Z" fill="#40525A"/><path fill-rule="evenodd" clip-rule="evenodd" d="M43.8815 65.0922C41.9503 63.5947 40.7002 61.2045 40.7002 58.5115C40.7002 53.9764 44.2453 50.3 48.6184 50.3C52.9915 50.3 56.5366 53.9764 56.5366 58.5115C56.5366 61.2585 55.2358 63.6905 53.2382 65.1812L55.2663 70.9615C55.8121 72.5172 54.9935 74.2208 53.4378 74.7666C53.1202 74.878 52.7861 74.935 52.4495 74.935H44.639C42.9903 74.935 41.6538 73.5984 41.6538 71.9498C41.6538 71.6132 41.7107 71.2791 41.8222 70.9615L43.8815 65.0922Z" fill="#3C4C55"/></svg>